<?xml version="1.0" standalone="no"?>
<!DOCTYPE svg PUBLIC "-//W3C//DTD SVG 20010904//EN"
 "http://www.w3.org/TR/2001/REC-SVG-20010904/DTD/svg10.dtd">
<svg version="1.0" xmlns="http://www.w3.org/2000/svg"
 width="774.000000pt" height="774.000000pt" viewBox="0 0 774.000000 774.000000"
 preserveAspectRatio="xMidYMid meet">
<metadata>
Created by potrace 1.11, written by Peter Selinger 2001-2013
</metadata>
<g transform="translate(0.000000,774.000000) scale(0.100000,-0.100000)"
fill="#000000" stroke="none">
<path d="M3717 7724 c-1 -1 -53 -5 -115 -9 -62 -3 -120 -8 -130 -9 -9 -2 -44
-7 -77 -10 -61 -7 -170 -24 -255 -41 -198 -38 -519 -129 -635 -180 -16 -7 -57
-23 -90 -35 -33 -13 -132 -58 -220 -100 -480 -229 -938 -585 -1270 -985 -28
-33 -53 -62 -56 -65 -11 -10 -126 -166 -181 -245 -141 -203 -306 -512 -398
-745 -68 -171 -148 -425 -165 -519 -3 -19 -8 -38 -11 -42 -8 -13 -59 -302 -70
-394 -3 -33 -8 -67 -9 -75 -2 -9 -6 -70 -11 -135 -21 -342 -2 -664 61 -995
103 -546 345 -1099 678 -1550 39 -52 73 -97 76 -100 3 -3 19 -23 36 -45 16
-22 72 -87 124 -145 271 -300 561 -539 909 -748 111 -67 410 -215 507 -252 33
-12 74 -28 90 -35 34 -15 242 -85 266 -90 9 -2 47 -12 85 -23 88 -26 268 -66
344 -78 19 -2 46 -7 60 -10 14 -2 34 -6 45 -8 11 -2 49 -7 85 -11 36 -4 79 -9
95 -11 77 -9 263 -18 390 -18 245 1 452 20 730 69 122 22 351 83 510 137 131
44 370 141 420 170 11 6 52 27 90 46 84 42 293 162 355 205 333 231 535 405
767 662 68 76 191 227 223 275 8 12 32 45 53 73 21 29 55 79 75 112 19 33 39
62 42 65 3 3 22 32 41 65 18 33 42 74 52 90 19 33 154 306 182 369 29 66 111
287 130 351 9 33 26 88 37 121 10 34 21 75 24 90 3 16 10 47 16 69 5 22 12 49
14 60 18 92 24 123 29 145 5 25 30 200 39 277 24 194 25 667 2 788 -2 11 -7
54 -12 95 -4 41 -8 77 -9 80 -1 3 -5 28 -9 55 -15 93 -67 330 -97 435 -133
466 -360 919 -639 1279 -25 32 -58 76 -75 97 -104 134 -327 363 -500 513 -104
90 -480 361 -500 361 -3 0 -43 23 -90 50 -176 105 -450 227 -675 303 -143 48
-310 94 -420 116 -30 6 -66 14 -80 16 -14 3 -41 8 -60 11 -50 8 -81 13 -109
19 -13 2 -49 7 -80 10 -31 3 -67 8 -81 10 -62 11 -544 27 -553 19z"/>
</g>
</svg>
