<svg xmlns="http://www.w3.org/2000/svg" xmlns:xlink="http://www.w3.org/1999/xlink" version="1.1" x="0px" y="0px" viewBox="0 0 100 125" enable-background="new 0 0 100 100" xml:space="preserve"><g><path d="M21.706,23.008c-3.97,0-7.213,3.252-7.213,7.268v31.418c0,4.044,3.243,7.324,7.213,7.324h40.82   c1.622,4.638,6.012,7.975,11.155,7.975c6.515,0,11.827-5.373,11.827-11.962c0-5.203-3.299-9.644-7.885-11.283V30.275   c0-4.016-3.243-7.268-7.241-7.268H21.706L21.706,23.008z M21.706,24.591h48.676c3.159,0,5.647,2.518,5.647,5.685V50.24l-8.08-6.929   c-0.279-0.226-0.755-0.226-1.034,0.028l-9.842,8.456L38.481,35.79c-0.168-0.142-0.363-0.227-0.587-0.198   c-0.14,0.028-0.251,0.057-0.363,0.142L16.058,50.891V30.275C16.058,27.108,18.574,24.591,21.706,24.591L21.706,24.591z    M57.186,29.822c-3.02,0-5.452,2.489-5.452,5.543c0,3.055,2.433,5.515,5.452,5.515c2.991,0,5.452-2.46,5.452-5.515   C62.638,32.312,60.177,29.822,57.186,29.822L57.186,29.822z M57.186,31.435c2.152,0,3.886,1.753,3.886,3.931   s-1.733,3.931-3.886,3.931c-2.153,0-3.887-1.753-3.887-3.931S55.032,31.435,57.186,31.435L57.186,31.435z M37.95,37.373   L56.57,53.436c0.279,0.255,0.727,0.255,1.007,0l9.869-8.455l8.583,7.381v0.933c-0.755-0.141-1.537-0.254-2.349-0.254   c-6.542,0-11.854,5.373-11.854,11.99c0,0.82,0.112,1.611,0.252,2.375H21.706c-3.131,0-5.647-2.545-5.647-5.712v-8.88L37.95,37.373   L37.95,37.373z M73.681,54.651c5.676,0,10.262,4.638,10.262,10.379c0,5.74-4.586,10.378-10.262,10.378   c-5.675,0-10.261-4.638-10.261-10.378C63.42,59.289,68.006,54.651,73.681,54.651L73.681,54.651z M73.598,57.253   c-0.028,0.028-0.057,0.028-0.112,0.028c-0.335,0.085-0.615,0.453-0.615,0.792v6.561c-0.195,0.425,0.028,0.99,0.447,1.132   c0.028,0,0.028,0,0.057,0l0.027,0.028c0.028,0,0.028,0,0.056,0c0,0,0,0.028,0.028,0.028h0.028c0.027,0,0.027,0,0.027,0   c0.028,0,0.028,0,0.057,0c0.027,0,0.027,0,0.056,0c0,0,0,0,0.027,0h6.851c0.419,0,0.782-0.368,0.782-0.792   c0-0.425-0.363-0.82-0.782-0.82h-6.067v-6.137C74.464,57.621,74.045,57.225,73.598,57.253L73.598,57.253z"/></g><text x="0" y="115" fill="#000000" font-size="5px" font-weight="bold" font-family="'Helvetica Neue', Helvetica, Arial-Unicode, Arial, Sans-serif">Created by artworkbean</text><text x="0" y="120" fill="#000000" font-size="5px" font-weight="bold" font-family="'Helvetica Neue', Helvetica, Arial-Unicode, Arial, Sans-serif">from the Noun Project</text></svg>