<svg xmlns="http://www.w3.org/2000/svg" xmlns:xlink="http://www.w3.org/1999/xlink" version="1.1" x="0px" y="0px" viewBox="0 0 100 125" enable-background="new 0 0 100 100" xml:space="preserve"><g><path d="M24.512,28.508c-5.618,0-10.006,5.29-10.006,11.688v19.58c0,6.398,4.388,11.717,10.006,11.717h44.521   c0.42,0,0.783-0.361,0.783-0.777v-7.699c0.279,0.139,0.559,0.277,0.866,0.389l13.75,5.014c0.476,0.166,1.063-0.25,1.063-0.748   V32.303c0-0.443-0.447-0.831-0.895-0.775c-0.056,0-0.111,0.027-0.168,0.055l-13.75,5.013c-0.308,0.111-0.587,0.25-0.866,0.388   v-7.699c0-0.415-0.363-0.775-0.783-0.775H24.512L24.512,28.508z M24.512,30.059H68.25v8.253c0,0.028,0,0.055,0,0.083v23.181   c-0.028,0.055-0.028,0.084,0,0.139v8.225H24.512c-4.584,0-8.44-4.459-8.44-10.164v-19.58C16.071,34.491,19.9,30.059,24.512,30.059   L24.512,30.059z M83.929,33.438v33.123l-12.716-4.625c-0.476-0.166-0.95-0.471-1.397-0.803V38.839   c0.447-0.333,0.922-0.609,1.397-0.776L83.929,33.438L83.929,33.438z"/></g><text x="0" y="115" fill="#000000" font-size="5px" font-weight="bold" font-family="'Helvetica Neue', Helvetica, Arial-Unicode, Arial, Sans-serif">Created by artworkbean</text><text x="0" y="120" fill="#000000" font-size="5px" font-weight="bold" font-family="'Helvetica Neue', Helvetica, Arial-Unicode, Arial, Sans-serif">from the Noun Project</text></svg>