<svg xmlns="http://www.w3.org/2000/svg" xmlns:xlink="http://www.w3.org/1999/xlink" version="1.1" x="0px" y="0px" viewBox="0 0 100 125" enable-background="new 0 0 100 100" xml:space="preserve"><g><path d="M25.357,27.008c-4.05,0-7.336,3.222-7.336,7.235v21.903c-0.029,0.143-0.029,0.311,0,0.48v9.072   c0,4.014,3.286,7.293,7.336,7.293h49.285c4.051,0,7.336-3.279,7.336-7.293v-9.637c0.028-0.086,0.028-0.17,0-0.254V34.244   c0-4.013-3.313-7.235-7.336-7.235H25.357L25.357,27.008z M25.357,28.591h49.285c3.172,0,5.75,2.515,5.75,5.652v20.01l-8.242-6.925   c-0.284-0.254-0.737-0.254-1.021,0l-9.97,8.45L42.324,39.755c-0.17-0.142-0.425-0.198-0.651-0.169   c-0.113,0.028-0.227,0.056-0.312,0.141L19.636,54.848V34.244C19.636,31.106,22.157,28.591,25.357,28.591L25.357,28.591z    M61.273,33.82c-3.06,0-5.523,2.515-5.523,5.54c0,3.052,2.464,5.511,5.523,5.511c3.03,0,5.552-2.458,5.552-5.511   C66.825,36.335,64.304,33.82,61.273,33.82L61.273,33.82z M60.849,35.431c0.142-0.028,0.283,0,0.425,0   c2.181,0,3.937,1.752,3.937,3.929c0,2.176-1.756,3.928-3.937,3.928c-2.182,0-3.938-1.752-3.938-3.928   C57.336,37.324,58.865,35.628,60.849,35.431L60.849,35.431z M41.757,41.394l18.865,16.053c0.283,0.254,0.765,0.254,1.048,0   l9.998-8.479l8.725,7.377v9.354c0,3.139-2.578,5.709-5.75,5.709H25.357c-3.201,0-5.722-2.57-5.722-5.709v-8.902L41.757,41.394   L41.757,41.394z"/></g><text x="0" y="115" fill="#000000" font-size="5px" font-weight="bold" font-family="'Helvetica Neue', Helvetica, Arial-Unicode, Arial, Sans-serif">Created by artworkbean</text><text x="0" y="120" fill="#000000" font-size="5px" font-weight="bold" font-family="'Helvetica Neue', Helvetica, Arial-Unicode, Arial, Sans-serif">from the Noun Project</text></svg>