<svg xmlns="http://www.w3.org/2000/svg" xmlns:xlink="http://www.w3.org/1999/xlink" version="1.1" x="0px" y="0px" viewBox="0 0 100 125" enable-background="new 0 0 100 100" xml:space="preserve"><g><path d="M25.693,27.008c-3.963,0-7.2,3.222-7.2,7.235v31.456c0,4.014,3.237,7.293,7.2,7.293h48.558c3.99,0,7.256-3.279,7.256-7.293   V34.244c0-4.013-3.266-7.235-7.256-7.235H25.693L25.693,27.008z M25.693,28.591h48.558c3.153,0,5.665,2.515,5.665,5.652v31.456   c0,3.139-2.512,5.709-5.665,5.709H25.693c-3.125,0-5.637-2.57-5.637-5.709V34.244C20.056,31.106,22.567,28.591,25.693,28.591   L25.693,28.591z M43.693,37.409c-0.363,0.056-0.642,0.424-0.642,0.791v23.571c0,0.594,0.754,0.988,1.228,0.678l17.358-11.785   c0.419-0.312,0.419-1.046,0-1.329L44.279,37.522c-0.14-0.113-0.335-0.141-0.502-0.113C43.749,37.409,43.721,37.409,43.693,37.409   L43.693,37.409z M44.642,39.727l15.153,10.259L44.642,60.273V39.727L44.642,39.727z"/></g><text x="0" y="115" fill="#000000" font-size="5px" font-weight="bold" font-family="'Helvetica Neue', Helvetica, Arial-Unicode, Arial, Sans-serif">Created by artworkbean</text><text x="0" y="120" fill="#000000" font-size="5px" font-weight="bold" font-family="'Helvetica Neue', Helvetica, Arial-Unicode, Arial, Sans-serif">from the Noun Project</text></svg>